<svg width="32" height="33" viewBox="0 0 32 33" fill="none" xmlns="http://www.w3.org/2000/svg">
<path d="M10.667 17.8333L16.3043 22.3427C16.5785 22.5617 16.9279 22.6638 17.2769 22.6268C17.6258 22.5899 17.9461 22.4169 18.1683 22.1453L29.3337 8.5" stroke="#5A62D1" stroke-width="2.66667" stroke-linecap="round"/>
<path fill-rule="evenodd" clip-rule="evenodd" d="M14.9202 16.8161L21.0322 9.34413C21.2496 9.06977 21.3504 8.7209 21.3129 8.37284C21.2753 8.02478 21.1023 7.70546 20.8313 7.48383C20.5603 7.26221 20.213 7.15605 19.8645 7.18829C19.5159 7.22052 19.1939 7.38857 18.9682 7.65613L12.8708 15.1095L14.9202 16.8161ZM10.6975 21.9761L8.64817 20.2695L7.7775 21.3335L3.46683 18.1001C3.18394 17.888 2.82834 17.7969 2.47827 17.8469C2.12821 17.8969 1.81234 18.0839 1.60017 18.3668C1.388 18.6497 1.29689 19.0053 1.3469 19.3554C1.39691 19.7054 1.58394 20.0213 1.86683 20.2335L6.1775 23.4668C6.72779 23.8794 7.41622 24.0635 8.099 23.9805C8.78177 23.8975 9.40608 23.5539 9.8415 23.0215L10.6975 21.9761Z" fill="#5A62D1"/>
</svg>
